<svg width="1920" height="596" viewBox="0 0 1920 596" fill="none" xmlns="http://www.w3.org/2000/svg">
<mask id="mask0_8_106" style="mask-type:alpha" maskUnits="userSpaceOnUse" x="0" y="0" width="1920" height="596">
<path d="M1920 0H0V596H1920V0Z" fill="white"/>
</mask>
<g mask="url(#mask0_8_106)">
<path fill-rule="evenodd" clip-rule="evenodd" d="M-8.5 384C276.5 519.333 527.167 590 743.5 596C1068 605 1181 531.5 1275 517.5C1369 503.5 1594.5 417.5 1938.5 517C2167.83 583.333 2165.5 404.833 1931.5 -18.5L-13 -11.5L-8.5 384Z" fill="#F8F9FE"/>
<path d="M55 71C115.751 71 165 21.7513 165 -39C165 -99.7513 115.751 -149 55 -149C-5.75132 -149 -55 -99.7513 -55 -39C-55 21.7513 -5.75132 71 55 71Z" fill="url(#paint0_linear_8_106)"/>
<path d="M1221.91 125.914C1302.55 125.914 1367.91 60.5477 1367.91 -20.0859C1367.91 -100.719 1302.55 -166.086 1221.91 -166.086C1141.28 -166.086 1075.91 -100.719 1075.91 -20.0859C1075.91 60.5477 1141.28 125.914 1221.91 125.914Z" fill="url(#paint1_linear_8_106)"/>
<path d="M786.179 171.998C803.297 172.297 816.932 186.416 816.633 203.534C816.334 220.653 802.215 234.287 785.097 233.989C767.978 233.69 754.344 219.571 754.642 202.452C754.941 185.334 769.06 171.699 786.179 171.998Z" fill="url(#paint2_linear_8_106)"/>
<path d="M561.433 379.656C577.456 388.907 597.944 383.417 607.195 367.395C616.446 351.372 610.956 330.883 594.933 321.633C578.91 312.382 558.422 317.872 549.171 333.895C539.92 349.917 545.41 370.406 561.433 379.656Z" fill="url(#paint3_linear_8_106)"/>
<path d="M168.5 165C171.538 165 174 162.538 174 159.5C174 156.462 171.538 154 168.5 154C165.462 154 163 156.462 163 159.5C163 162.538 165.462 165 168.5 165Z" fill="#E8EEFC"/>
<path d="M1038.5 56C1042.09 56 1045 53.0899 1045 49.5C1045 45.9101 1042.09 43 1038.5 43C1034.91 43 1032 45.9101 1032 49.5C1032 53.0899 1034.91 56 1038.5 56Z" fill="#E8EEFC"/>
<path d="M1688.5 192C1695.4 192 1701 186.404 1701 179.5C1701 172.596 1695.4 167 1688.5 167C1681.6 167 1676 172.596 1676 179.5C1676 186.404 1681.6 192 1688.5 192Z" fill="#E8EEFC"/>
<path d="M1916.5 370C1925.61 370 1933 362.613 1933 353.5C1933 344.387 1925.61 337 1916.5 337C1907.39 337 1900 344.387 1900 353.5C1900 362.613 1907.39 370 1916.5 370Z" fill="#E8EEFC"/>
<path d="M2 312C10.2843 312 17 305.284 17 297C17 288.716 10.2843 282 2 282C-6.28427 282 -13 288.716 -13 297C-13 305.284 -6.28427 312 2 312Z" fill="#E8EEFC"/>
</g>
<defs>
<linearGradient id="paint0_linear_8_106" x1="-10.2004" y1="-128.201" x2="105.699" y2="58.9241" gradientUnits="userSpaceOnUse">
<stop stop-color="#0270FE" stop-opacity="0"/>
<stop offset="1" stop-color="#0270FE" stop-opacity="0.06"/>
</linearGradient>
<linearGradient id="paint1_linear_8_106" x1="1135.38" y1="-138.48" x2="1289.21" y2="109.886" gradientUnits="userSpaceOnUse">
<stop stop-color="#0270FE" stop-opacity="0"/>
<stop offset="1" stop-color="#0270FE" stop-opacity="0.06"/>
</linearGradient>
<linearGradient id="paint2_linear_8_106" x1="766.827" y1="227.807" x2="800.405" y2="175.65" gradientUnits="userSpaceOnUse">
<stop stop-color="#0270FE" stop-opacity="0"/>
<stop offset="1" stop-color="#0270FE" stop-opacity="0.06"/>
</linearGradient>
<linearGradient id="paint3_linear_8_106" x1="574.57" y1="317.19" x2="576.644" y2="384.192" gradientUnits="userSpaceOnUse">
<stop stop-color="#0270FE" stop-opacity="0"/>
<stop offset="1" stop-color="#0270FE" stop-opacity="0.06"/>
</linearGradient>
</defs>
</svg>
