<?xml version="1.0" standalone="no"?><!DOCTYPE svg PUBLIC "-//W3C//DTD SVG 1.1//EN" "http://www.w3.org/Graphics/SVG/1.1/DTD/svg11.dtd"><svg t="1677396406965" class="icon" viewBox="0 0 1024 1024" version="1.1" xmlns="http://www.w3.org/2000/svg" p-id="1855" width="200" height="200" xmlns:xlink="http://www.w3.org/1999/xlink"><path d="M770.609824 1023.841829a142.354032 142.354032 0 0 1-104.86747-239.787458 14.235403 14.235403 0 0 1 20.878591 19.455051A113.883225 113.883225 0 1 0 727.429101 775.038616a14.235403 14.235403 0 1 1-10.597467-26.414581 142.354032 142.354032 0 1 1 53.145505 275.375965zM444.935434 292.932963H276.957677a16.766141 16.766141 0 0 1 0-33.532283h167.977757a16.766141 16.766141 0 0 1 0 33.532283zM344.180414 360.1557h-67.222737a16.766141 16.766141 0 0 1 0-33.532283h67.222737a16.766141 16.766141 0 0 1 0 33.532283zM679.977757 494.601174H276.957677a16.924313 16.924313 0 0 1 0-33.690454H679.977757a16.924313 16.924313 0 0 1 0 33.690454zM679.977757 561.823911H276.957677a16.924313 16.924313 0 0 1 0-33.690454H679.977757a16.924313 16.924313 0 0 1 0 33.690454zM679.977757 629.046648H276.957677a16.924313 16.924313 0 0 1 0-33.690454H679.977757a16.924313 16.924313 0 0 1 0 33.690454zM411.086809 695.953043h-134.445474a16.924313 16.924313 0 0 1 0-33.690454H411.086809A16.924313 16.924313 0 0 1 411.086809 695.953043z" fill="#1296db" p-id="1856"></path><path d="M699.116466 207.204201m0-3.796107l0-25.307383q0-3.796108 3.796107-3.796108l194.075997 0q3.796108 0 3.796107 3.796108l0 25.307383q0 3.796108-3.796107 3.796107l-194.075997 0q-3.796108 0-3.796107-3.796107Z" fill="#1296db" p-id="1857"></path><path d="M731.857893 207.04603m-3.796107 0l-25.307384 0q-3.796108 0-3.796107-3.796107l0-110.087118q0-3.796108 3.796107-3.796107l25.307384 0q3.796108 0 3.796107 3.796107l0 110.087118q0 3.796108-3.796107 3.796107Z" fill="#1296db" p-id="1858"></path><path d="M907.514349 190.194241m-2.684253 2.684254l-17.895023 17.895022q-2.684253 2.684253-5.368506 0l-186.331921-186.331921q-2.684253-2.684253 0-5.368507l17.895022-17.895022q2.684253-2.684253 5.368507 0l186.331921 186.331921q2.684253 2.684253 0 5.368507Z" fill="#1296db" p-id="1859"></path><path d="M429.434662 997.427247m-16.449799 0a16.449799 16.449799 0 1 0 32.899598 0 16.449799 16.449799 0 1 0-32.899598 0Z" fill="#1296db" p-id="1860"></path><path d="M363.635465 980.661106H176.67717a33.215941 33.215941 0 0 1-33.21594-33.215941V71.335187a33.374112 33.374112 0 0 1 33.21594-33.374112h540.628978V5.219648H176.67717A66.115539 66.115539 0 0 0 110.561631 71.335187v876.426321a66.115539 66.115539 0 0 0 66.115539 66.115539H363.635465a15.817115 15.817115 0 1 0 0-33.215941zM594.248996 980.661106H494.917516a15.817115 15.817115 0 0 0 0 32.899598h99.33148a15.817115 15.817115 0 0 0 0-32.899598zM901.417362 714.617238V272.845227a15.817115 15.817115 0 0 0-32.899599 0v441.772011a15.817115 15.817115 0 1 0 32.899599 0z" fill="#1296db" p-id="1861"></path><path d="M754.160025 826.127896m3.796107 0l25.307384 0q3.796108 0 3.796107 3.796108l0 129.858511q0 3.796108-3.796107 3.796107l-25.307384 0q-3.796108 0-3.796107-3.796107l0-129.858511q0-3.796108 3.796107-3.796108Z" fill="#1296db" p-id="1862"></path><path d="M747.422242 817.383321m2.684253-2.684253l17.895023-17.895023q2.684253-2.684253 5.368507 0l72.139309 72.139309q2.684253 2.684253 0 5.368507l-17.895023 17.895023q-2.684253 2.684253-5.368507 0l-72.139309-72.13931q-2.684253-2.684253 0-5.368506Z" fill="#1296db" p-id="1863"></path><path d="M716.242933 895.111782m-2.684253-2.684254l-17.895022-17.895022q-2.684253-2.684253 0-5.368507l72.139309-72.139309q2.684253-2.684253 5.368506 0l17.895023 17.895023q2.684253 2.684253 0 5.368506l-72.139309 72.139309q-2.684253 2.684253-5.368507 0Z" fill="#1296db" p-id="1864"></path></svg>